# xmcd
# 
# Track frame offsets:
#     182
#     15327
#     33492
#     49185
#     70087
#     95410
#     112187
#     131837
#     148517
# 
# Disc length: 2348
# 
# Revision: 3
# Processed by: cddbd v1.5.2PL0 Copyright (c) Steve Scherf et al.
# Submitted via: BonkEnc v1.0
# 
DISCID=7b092a09
DTITLE=Butterfield, Paul - It All Comes Back
DYEAR=1973
DGENRE=Blues
TTITLE0=Too Many Drivers
TTITLE1=It's Getting Harder to Survive
TTITLE2=If You Live
TTITLE3=Win or Lose
TTITLE4=Small Town Talk
TTITLE5=Take Your Pleasure Where You Find It
TTITLE6=Poor Boy
TTITLE7=Louisiana Flood
TTITLE8=It All Comes Back
EXTD=
EXTT0=
EXTT1=
EXTT2=
EXTT3=
EXTT4=
EXTT5=
EXTT6=
EXTT7=
EXTT8=
PLAYORDER=
